<svg width="362" height="331" viewBox="0 0 362 331" fill="none" xmlns="http://www.w3.org/2000/svg">
<path d="M95.6285 250.012C101.316 269.189 117.782 293.765 138.234 275.934" stroke="#4B8085" stroke-width="2"/>
<rect width="198.713" height="212.445" rx="8" transform="matrix(-1 0 0 1 303.086 57.3185)" fill="#FFD8BA" fill-opacity="0.5"/>
<rect x="-1" y="1" width="23.8416" height="84.3884" rx="3" transform="matrix(-1 0 0 1 38.2141 241.555)" fill="#4B8085" stroke="white" stroke-width="2"/>
<rect x="-1" y="1" width="23.8416" height="84.3884" rx="3" transform="matrix(-1 0 0 1 345.641 241.555)" fill="#4B8085" stroke="white" stroke-width="2"/>
<rect width="174.654" height="5.28908" rx="2.64454" transform="matrix(-1 0 0 1 308.432 208.057)" fill="#5BD2DC"/>
<rect width="174.654" height="5.28908" rx="2.64454" transform="matrix(-1 0 0 1 308.432 198.361)" fill="#5BD2DC"/>
<rect width="174.654" height="5.28908" rx="2.64454" transform="matrix(-1 0 0 1 308.432 189.546)" fill="#5BD2DC"/>
<rect width="174.654" height="5.28908" rx="2.64454" transform="matrix(-1 0 0 1 308.432 179.849)" fill="#5BD2DC"/>
<rect width="174.654" height="5.28908" rx="2.64454" transform="matrix(-1 0 0 1 309.323 171.034)" fill="#5BD2DC"/>
<rect x="15.7637" y="243.818" width="15.9307" height="83.6254" rx="3.5" fill="#5BD2DC" stroke="white"/>
<rect x="330.819" y="242.555" width="15.8218" height="84.3884" rx="3" fill="#5BD2DC" stroke="white" stroke-width="2"/>
<rect x="121.477" y="2.8092" width="148.466" height="116.952" rx="6.5" fill="#FFD8BA" stroke="#FFA984" stroke-width="5"/>
<rect x="132.17" y="12.5059" width="127.971" height="96.6775" rx="6.5" fill="white" stroke="#FFA984" stroke-width="5"/>
<rect x="1.0061" y="221.28" width="360.001" height="28.2085" rx="8" fill="#4B8085"/>
<rect x="1.0061" y="218.636" width="360.001" height="17.6303" rx="8" fill="#5BD2DC"/>
<rect x="281.526" y="73.0413" width="44.9011" height="44.3648" rx="5.5" fill="white" stroke="#FFA984" stroke-width="5"/>
<ellipse cx="303.531" cy="94.7831" rx="4.901" ry="4.84833" fill="#FFA984"/>
<rect x="224.497" y="131.221" width="44.9011" height="44.3648" rx="5.5" fill="white" stroke="#FFA984" stroke-width="5"/>
<path fill-rule="evenodd" clip-rule="evenodd" d="M306.984 84.087C307.502 85.0959 307.511 86.3356 306.896 87.3887C305.93 89.0445 303.789 89.6118 302.116 88.6558C300.541 87.7567 299.94 85.8301 300.679 84.2265L300.66 84.2263L303.925 77.594L306.984 84.087Z" fill="#FFA984"/>
<path fill-rule="evenodd" clip-rule="evenodd" d="M307.875 106.813C308.394 105.804 308.402 104.564 307.787 103.511C306.821 101.855 304.681 101.288 303.007 102.244C301.432 103.143 300.832 105.07 301.57 106.673L301.551 106.673L304.816 113.306L307.875 106.813Z" fill="#FFA984"/>
<path fill-rule="evenodd" clip-rule="evenodd" d="M316.583 92.4726C315.563 91.9599 314.31 91.9517 313.245 92.5598C311.572 93.5158 310.998 95.633 311.965 97.2888C312.873 98.8463 314.821 99.4407 316.442 98.7103L316.442 98.729L323.147 95.4994L316.583 92.4726Z" fill="#FFA984"/>
<path fill-rule="evenodd" clip-rule="evenodd" d="M291.827 91.591C292.847 91.0784 294.101 91.0702 295.165 91.6782C296.839 92.6342 297.412 94.7515 296.446 96.4073C295.537 97.9647 293.59 98.5592 291.969 97.8288L291.968 97.8475L285.264 94.6179L291.827 91.591Z" fill="#FFA984"/>
<path fill-rule="evenodd" clip-rule="evenodd" d="M318.35 87.7457C317.816 89.3727 316.486 90.7079 314.691 91.1836C311.873 91.9304 308.977 90.2764 308.222 87.4891C307.512 84.8676 308.949 82.1773 311.467 81.2453L311.447 81.2251L322.086 77.5937L318.35 87.7457Z" fill="#FFA984"/>
<path fill-rule="evenodd" clip-rule="evenodd" d="M289.221 86.7963C289.752 88.4113 291.073 89.7364 292.854 90.2087C295.653 90.9504 298.529 89.3077 299.279 86.5395C299.984 83.9359 298.557 81.264 296.056 80.3384L296.076 80.3184L285.51 76.7119L289.221 86.7963Z" fill="#FFA984"/>
<path fill-rule="evenodd" clip-rule="evenodd" d="M318.777 103.354C318.265 101.79 316.987 100.506 315.262 100.048C312.557 99.3313 309.776 100.919 309.051 103.596C308.369 106.113 309.749 108.696 312.166 109.591L312.147 109.611L322.362 113.097L318.777 103.354Z" fill="#FFA984"/>
<path fill-rule="evenodd" clip-rule="evenodd" d="M289.944 103.213C290.462 101.633 291.752 100.337 293.494 99.8753C296.227 99.1508 299.037 100.755 299.769 103.459C300.458 106.002 299.064 108.612 296.622 109.516L296.641 109.536L286.321 113.059L289.944 103.213Z" fill="#FFA984"/>
<ellipse cx="245.61" cy="152.963" rx="4.901" ry="4.84833" fill="#FFA984"/>
<path fill-rule="evenodd" clip-rule="evenodd" d="M249.064 142.267C249.582 143.276 249.59 144.516 248.975 145.569C248.009 147.224 245.869 147.792 244.195 146.836C242.62 145.937 242.02 144.01 242.758 142.407L242.739 142.406L246.004 135.774L249.064 142.267Z" fill="#FFA984"/>
<path fill-rule="evenodd" clip-rule="evenodd" d="M249.955 164.993C250.473 163.984 250.481 162.744 249.867 161.691C248.9 160.035 246.76 159.468 245.086 160.424C243.512 161.323 242.911 163.249 243.649 164.853L243.63 164.853L246.895 171.486L249.955 164.993Z" fill="#FFA984"/>
<path fill-rule="evenodd" clip-rule="evenodd" d="M258.662 150.652C257.642 150.14 256.389 150.132 255.324 150.74C253.651 151.696 253.077 153.813 254.043 155.469C254.952 157.026 256.9 157.621 258.521 156.89L258.521 156.909L265.226 153.679L258.662 150.652Z" fill="#FFA984"/>
<path fill-rule="evenodd" clip-rule="evenodd" d="M233.906 149.771C234.926 149.258 236.18 149.25 237.244 149.858C238.918 150.814 239.492 152.931 238.525 154.587C237.616 156.145 235.669 156.739 234.048 156.009L234.048 156.027L227.343 152.798L233.906 149.771Z" fill="#FFA984"/>
<path fill-rule="evenodd" clip-rule="evenodd" d="M260.43 145.921C259.897 147.55 258.567 148.887 256.77 149.364C253.953 150.11 251.057 148.456 250.302 145.669C249.592 143.048 251.028 140.357 253.546 139.425L253.526 139.405L264.165 135.774L260.43 145.921Z" fill="#FFA984"/>
<path fill-rule="evenodd" clip-rule="evenodd" d="M231.3 144.976C231.831 146.591 233.151 147.916 234.933 148.389C237.731 149.13 240.607 147.488 241.357 144.719C242.062 142.116 240.635 139.444 238.135 138.518L238.155 138.498L227.589 134.892L231.3 144.976Z" fill="#FFA984"/>
<path fill-rule="evenodd" clip-rule="evenodd" d="M260.856 161.534C260.344 159.97 259.066 158.686 257.341 158.228C254.636 157.511 251.855 159.099 251.13 161.776C250.448 164.293 251.828 166.876 254.245 167.771L254.226 167.79L264.441 171.277L260.856 161.534Z" fill="#FFA984"/>
<path fill-rule="evenodd" clip-rule="evenodd" d="M232.025 161.388C232.543 159.811 233.833 158.517 235.573 158.055C238.307 157.331 241.116 158.935 241.848 161.639C242.537 164.182 241.143 166.792 238.701 167.696L238.72 167.716L228.4 171.239L232.025 161.388Z" fill="#FFA984"/>
<ellipse cx="217.891" cy="40.109" rx="19.6598" ry="19.5594" fill="#FFA984"/>
<ellipse cx="207.406" cy="51.2858" rx="14.4172" ry="13.971" fill="#FFA984"/>
<path d="M199.689 65.1901C199.243 64.7141 198.888 64.4828 198.593 63.8548C198.046 62.6873 197.689 61.4283 197.149 60.2567C196.307 58.4273 196.007 56.0314 195.74 54.0065C195.566 52.6866 195.305 51.4187 195.305 50.0746C195.305 48.9302 195.875 47.6952 196.279 46.662C197.773 42.8397 199.049 38.8976 201.012 35.3114C201.828 33.8191 202.508 32.1484 202.508 30.378C202.508 29.7753 202.508 29.1725 202.508 28.5697C202.508 28.2421 202.508 29.225 202.508 29.5527C202.508 30.49 202.454 31.443 202.586 32.3718C202.665 32.9233 202.898 33.4435 202.969 33.9761C203.094 34.9092 203.658 35.8692 203.952 36.7766C204.103 37.2412 204.355 37.6973 204.544 38.1491C204.85 38.8837 204.858 39.7159 205.048 40.486C205.484 42.2503 205.781 44.0816 206.266 45.8274C206.956 48.3091 207.878 50.8738 209.79 52.5042C209.893 52.5921 209.585 53.0789 209.476 53.1719C209.28 53.3398 209.276 54.5596 209.25 54.8318C209.12 56.2164 208.53 57.4301 207.824 58.6061C206.868 60.1984 205.736 61.7786 204.387 63.0109C203.896 63.4593 203.332 63.8538 202.821 64.2813C202.682 64.3976 201.882 65.393 201.882 65.1901" stroke="#4B8085" stroke-linecap="round"/>
<path d="M200.316 65.0234C201.497 65.0234 202.592 65.309 203.761 65.487C205.452 65.7445 207.178 65.858 208.894 65.858C209.882 65.858 211.649 66.2385 212.495 65.691C213.689 64.9184 214.757 63.9816 215.94 63.1872C217.173 62.3598 218.289 61.3268 219.542 60.5165C220.691 59.7733 221.061 58.645 222.395 58.1796C223.499 57.7947 224.599 57.4891 225.605 56.8535C226.546 56.2596 227.337 55.4903 228.224 54.8041C229.383 53.9072 230.538 52.59 230.538 51.0021" stroke="#4B8085" stroke-linecap="round"/>
<path d="M210.964 54.5075C210.964 53.963 211.078 53.6403 211.469 53.237C212.723 51.9421 213.912 50.6579 215.584 50.0099C216.857 49.5164 218.131 49.178 219.49 49.166C220.913 49.1535 222.451 48.9648 223.805 49.4999C226.915 50.7292 229.789 52.6713 233.2 52.6713" stroke="#4B8085" stroke-linecap="round"/>
<path d="M211.747 55.5087C213.764 55.5087 215.675 54.4169 217.68 54.1919C220.182 53.9112 222.79 54.2724 225.292 54.331C228.586 54.4082 231.857 54.7044 234.61 52.5042" stroke="#4B8085" stroke-linecap="round"/>
<path d="M210.338 50.5012C210.338 48.7486 210.338 46.9959 210.338 45.2433C210.338 42.9605 210.675 40.3652 209.781 38.2326C208.28 34.6503 207.555 30.6443 204.553 28.0598C203.998 27.5821 202.978 26.967 202.978 26.1309C202.978 25.5526 202.821 26.349 202.735 26.5575C202.285 27.6465 201.795 28.7204 201.412 29.8403C200.671 32.0076 200.595 34.1657 201.099 36.313" stroke="#4B8085" stroke-linecap="round"/>
<path d="M206.11 25.797C206.11 24.0902 206.885 23.191 207.832 21.828C209.432 19.5254 212.376 19.9548 214.731 19.9548C215.731 19.9548 216.859 19.8201 217.819 19.4911C218.524 19.2496 218.284 19.5852 218.333 20.3072C218.482 22.5369 221.435 22.6143 223.022 22.7924C224.323 22.9384 225.67 23.8726 226.78 24.4987C227.242 24.7594 229.111 25.9808 229.111 26.3812C229.111 26.6808 225.943 26.3243 225.64 26.2885C223.27 26.0078 220.903 25.6301 218.515 25.6301C216.78 25.6301 214.935 25.438 213.217 25.7228C211.636 25.985 209.972 26.0843 208.459 26.6687C207.871 26.8958 207.043 27.4662 206.423 27.4662" stroke="#4B8085" stroke-linecap="round"/>
<path d="M229.442 26.6315C231.065 26.6315 233.042 26.3287 233.983 28.1338C234.565 29.2501 234.901 30.7682 235.584 31.769C236.02 32.4082 236.082 33.3506 236.489 34.0131C236.717 34.3851 238.535 35.3765 238.498 35.5896C238.435 35.9582 236.489 37.8032 235.949 37.639C235.843 37.6066 235.395 36.4839 235.314 36.3129C235.043 35.7342 234.74 35.4479 234.375 34.9683C233.982 34.4535 233.422 34.0516 232.878 33.7256C232.145 33.2857 231.78 32.6303 231.33 31.8803C230.959 31.2631 230.483 30.7012 230.155 30.0534C229.908 29.563 229.824 29.0416 229.442 28.6346" stroke="#4B8085" stroke-linecap="round"/>
<path d="M236.645 39.1506C236.645 42.2942 236.645 45.4379 236.645 48.5816C236.645 49.4054 236.046 50.2767 235.706 51.0019" stroke="#4B8085" stroke-linecap="round"/>
<path d="M228.972 49.166C230.215 49.166 231.018 47.0675 231.469 46.0873C231.856 45.2472 232.372 44.2178 232.539 43.2867C232.717 42.297 232.574 41.1667 232.574 40.1616C232.574 38.4308 232.828 36.3548 232.104 34.8109" stroke="#4B8085" stroke-linecap="round"/>
<path d="M211.434 36.6468C211.6 36.6481 214.096 36.4586 214.096 36.9065C214.096 37.3333 214.319 37.6915 214.488 38.0656C214.793 38.7426 215.086 39.4961 215.427 40.1429C215.999 41.2259 216.696 41.855 217.541 42.6559C217.983 43.0748 218.43 43.6139 218.872 43.9913C219.334 44.3854 218.637 45.6961 218.637 46.1613" stroke="#4B8085" stroke-linecap="round"/>
<path d="M212.217 34.8106C212.217 33.2955 214.121 32.5522 215.279 32.0472C217.607 31.032 219.909 31.7348 222.352 31.7968C223.431 31.8242 224.612 31.7443 225.667 32.0564C226.089 32.1815 225.788 32.1382 225.527 32.2697C224.957 32.5579 224.394 32.787 223.892 33.2249C223.312 33.7303 223.492 34.4456 223.492 35.2094C223.492 36.0446 224.123 35.9178 224.588 36.3871C224.998 36.8014 225.392 37.2633 225.806 37.6854C226.19 38.0767 226.745 38.3021 227.085 38.724C227.453 39.1817 227.543 39.7556 227.72 40.319" stroke="#4B8085" stroke-linecap="round"/>
<path d="M217.384 34.8109C217.384 36.0812 218.976 37.0981 220.047 37.5651C220.295 37.6734 222.828 38.6954 222.865 37.9824C222.951 36.3439 222.191 34.7146 220.821 33.8929C219.733 33.2408 218.233 33.3877 217.071 32.9748" stroke="#4B8085" stroke-linecap="round"/>
<path d="M220.986 45.6607C220.986 44.1309 222.244 43.1541 223.422 42.5263C224.724 41.8324 226.146 41.9885 227.563 41.9885" stroke="#4B8085" stroke-linecap="round"/>
<path d="M211.063 33.912C211.063 33.0447 211.005 32.2082 211.333 31.3895C211.869 30.0524 212.672 28.9751 213.808 28.1954C214.405 27.7855 214.972 27.2757 215.6 26.9267C215.994 26.7078 216.407 26.5976 216.797 26.3894" stroke="#4B8085" stroke-linecap="round"/>
<path d="M226.122 30.9567C225.961 30.3728 225.359 30.0547 224.862 29.8298C223.909 29.3985 223.034 28.9479 222.163 28.341C221.849 28.1219 221.542 27.9443 221.208 27.7663C221.008 27.66 220.85 27.4714 220.641 27.3969" stroke="#4B8085" stroke-linecap="round"/>
<path d="M226.158 31.097H229.603" stroke="#4B8085" stroke-linecap="round"/>
<path d="M229.012 41.59H230.39" stroke="#4B8085" stroke-linecap="round"/>
<path d="M228.241 31.9587C228.241 33.6047 228.241 35.2508 228.241 36.8969C228.241 37.5943 227.991 39.0193 228.388 39.6539" stroke="#4B8085" stroke-linecap="round"/>
<path d="M211.429 41.8475C213.029 41.8475 213.872 42.9311 214.428 44.3723C214.575 44.7512 214.777 45.0589 215.129 45.2612C215.329 45.3761 215.535 45.3501 215.728 45.4531" stroke="#4B8085" stroke-linecap="round"/>
<path d="M223.903 46.1291C225.26 46.1291 226.617 46.1291 227.974 46.1291C228.518 46.1291 228.635 45.9039 229.047 45.5449C229.392 45.2437 229.798 44.987 230.159 44.7019C230.369 44.5358 230.315 44.1968 230.315 43.9507" stroke="#4B8085" stroke-linecap="round"/>
<ellipse cx="16.5363" cy="15.5952" rx="16.5363" ry="15.5952" transform="matrix(0.138619 -0.990346 0.990749 0.13571 151.342 70.9323)" fill="#FFA984"/>
<ellipse cx="12.1266" cy="11.1394" rx="12.1266" ry="11.1394" transform="matrix(0.138619 -0.990346 0.990749 0.13571 163.974 77.1133)" fill="#FFA984"/>
<path d="M186.776 74.5479C186.348 74.8684 186.123 75.1391 185.593 75.3165C184.607 75.6463 183.571 75.8075 182.582 76.1301C181.039 76.634 179.112 76.624 177.481 76.6278C176.418 76.6302 175.386 76.7101 174.324 76.5647C173.42 76.4408 172.511 75.832 171.742 75.3838C168.897 73.7256 165.931 72.2362 163.327 70.2134C162.244 69.3716 161.003 68.6247 159.605 68.4331C159.128 68.3679 158.652 68.3027 158.176 68.2374C157.917 68.202 158.694 68.3083 158.953 68.3438C159.693 68.4452 160.44 68.5931 161.189 68.5836C161.634 68.578 162.072 68.4402 162.501 68.4384C163.252 68.4352 164.076 68.0698 164.828 67.9225C165.212 67.8471 165.602 67.6863 165.981 67.5782C166.597 67.4026 167.255 67.4858 167.886 67.4108C169.33 67.2389 170.811 67.1895 172.247 66.9742C174.288 66.6681 176.421 66.178 177.932 64.7618C178.014 64.6854 178.362 64.994 178.423 65.0949C178.533 65.2771 179.496 65.4122 179.708 65.4629C180.787 65.7209 181.676 66.3444 182.523 67.0598C183.669 68.0284 184.786 69.1421 185.602 70.3989C185.899 70.8562 186.145 71.3693 186.423 71.8407C186.499 71.969 187.192 72.7437 187.031 72.7217" stroke="#4B8085" stroke-linecap="round"/>
<path d="M186.717 74.0081C186.854 73.0244 187.208 72.143 187.485 71.1885C187.885 69.8081 188.176 68.3823 188.376 66.9531C188.491 66.1302 188.998 64.6988 188.664 63.9349C188.193 62.8568 187.577 61.8661 187.088 60.7943C186.578 59.6778 185.892 58.6368 185.398 57.5051C184.945 56.4673 184.097 56.0369 183.885 54.8754C183.709 53.9145 183.596 52.9646 183.212 52.0578C182.852 51.2103 182.337 50.4678 181.898 49.6548C181.325 48.592 180.419 47.4876 179.164 47.3158" stroke="#4B8085" stroke-linecap="round"/>
<path d="M179.651 64C179.221 63.9411 178.979 63.8113 178.706 63.4423C177.83 62.2575 176.954 61.1282 176.637 59.6654C176.396 58.5515 176.277 57.4535 176.426 56.3203C176.582 55.1337 176.612 53.8318 177.193 52.762C178.526 50.3041 180.396 48.1206 180.793 45.2787" stroke="#4B8085" stroke-linecap="round"/>
<path d="M180.534 63.4563C180.769 61.7768 180.129 60.0666 180.185 58.3715C180.255 56.2574 180.844 54.1239 181.183 52.0457C181.628 49.3107 182.243 46.6174 180.826 44.0868" stroke="#4B8085" stroke-linecap="round"/>
<path d="M176.414 64.0885C175.029 63.8989 173.645 63.7092 172.26 63.5196C170.457 63.2726 168.446 62.7109 166.657 63.2248C163.652 64.088 160.403 64.2584 158.012 66.4793C157.57 66.8898 156.965 67.6727 156.304 67.5823C155.847 67.5197 156.458 67.7371 156.613 67.8313C157.421 68.3236 158.212 68.8478 159.052 69.288C160.677 70.14 162.373 70.4365 164.128 70.2493" stroke="#4B8085" stroke-linecap="round"/>
<path d="M156.405 64.9373C155.057 64.7526 154.437 64.0094 153.471 63.0729C151.839 61.4909 152.521 59.085 152.796 57.1236C152.912 56.2907 152.937 55.3362 152.789 54.5008C152.681 53.8875 152.918 54.1238 153.494 54.1616C155.273 54.2784 155.678 51.8273 156.004 50.5245C156.271 49.4566 157.166 48.435 157.79 47.5785C158.05 47.222 159.233 45.7968 159.549 45.8401C159.786 45.8725 159.134 48.4735 159.071 48.7215C158.573 50.6654 157.998 52.5961 157.72 54.5854C157.518 56.0309 157.151 57.5469 157.176 59.0086C157.198 60.3543 157.083 61.7514 157.368 63.075C157.479 63.5895 157.833 64.3404 157.761 64.857" stroke="#4B8085" stroke-linecap="round"/>
<path d="M159.785 45.5918C159.975 44.2402 159.966 42.5599 161.502 41.9716C162.451 41.6077 163.69 41.492 164.56 41.0315C165.116 40.7374 165.867 40.7875 166.438 40.5207C166.759 40.3708 167.754 38.9639 167.918 39.0173C168.202 39.1095 169.432 40.9308 169.239 41.3623C169.201 41.4473 168.262 41.6995 168.118 41.7478C167.629 41.9113 167.368 42.1323 166.946 42.385C166.494 42.6561 166.111 43.0794 165.79 43.497C165.357 44.0605 164.797 44.2932 164.152 44.5872C163.621 44.8291 163.121 45.1653 162.572 45.3678C162.155 45.5211 161.734 45.5345 161.368 45.8085" stroke="#4B8085" stroke-linecap="round"/>
<path d="M170.514 40.9461C172.998 41.2863 175.481 41.6264 177.964 41.9666C178.615 42.0557 179.234 42.6493 179.767 43.0111" stroke="#4B8085" stroke-linecap="round"/>
<path d="M177.531 48.4215C177.676 47.3866 176.112 46.4903 175.391 46.0085C174.772 45.5956 174.019 45.0542 173.303 44.8141C172.542 44.5589 171.632 44.5557 170.838 44.447C169.471 44.2597 167.861 43.8232 166.557 44.2593" stroke="#4B8085" stroke-linecap="round"/>
<path d="M165.597 61.6763C165.617 61.5381 165.759 59.4384 166.112 59.4869C166.45 59.5331 166.759 59.3865 167.074 59.2862C167.644 59.1048 168.274 58.9427 168.824 58.7284C169.746 58.3695 170.325 57.8568 171.056 57.2393C171.438 56.9164 171.916 56.6029 172.266 56.2751C172.631 55.9327 173.585 56.6552 173.953 56.7055" stroke="#4B8085" stroke-linecap="round"/>
<path d="M164.238 60.8254C163.041 60.6614 162.676 58.9949 162.412 57.9755C161.881 55.9265 162.705 54.0854 163.039 52.0568C163.186 51.1608 163.261 50.1682 163.63 49.3239C163.778 48.9856 163.709 49.2316 163.783 49.463C163.944 49.9695 164.059 50.4631 164.346 50.9287C164.678 51.4661 165.264 51.3941 165.867 51.4768C166.527 51.5672 166.501 51.0274 166.926 50.6911C167.301 50.3942 167.711 50.1162 168.093 49.8171C168.447 49.5397 168.69 49.1011 169.063 48.8642C169.467 48.6071 169.931 48.5935 170.397 48.5077" stroke="#4B8085" stroke-linecap="round"/>
<path d="M164.841 56.5209C165.844 56.6584 166.833 55.443 167.327 54.6014C167.441 54.4062 168.544 52.4068 167.985 52.2987C166.701 52.0502 165.325 52.5064 164.516 53.5591C163.874 54.3945 163.815 55.6598 163.354 56.5831" stroke="#4B8085" stroke-linecap="round"/>
<path d="M173.831 54.6945C172.623 54.529 171.998 53.3754 171.639 52.3263C171.243 51.1666 171.532 49.9991 171.697 48.8186" stroke="#4B8085" stroke-linecap="round"/>
<path d="M163.393 61.6889C162.708 61.5951 162.041 61.5533 161.432 61.1914C160.438 60.6004 159.681 59.8146 159.198 58.7842C158.943 58.2425 158.607 57.7151 158.404 57.154C158.277 56.8021 158.238 56.4465 158.119 56.0986" stroke="#4B8085" stroke-linecap="round"/>
<path d="M162.815 48.8252C162.335 48.8968 162.014 49.3632 161.778 49.753C161.326 50.5002 160.868 51.1803 160.287 51.8401C160.077 52.0782 159.901 52.315 159.722 52.5739C159.614 52.7286 159.447 52.8398 159.364 53.0063" stroke="#4B8085" stroke-linecap="round"/>
<path d="M162.93 48.811L163.332 45.9411" stroke="#4B8085" stroke-linecap="round"/>
<path d="M171.551 47.5686L171.712 46.4206" stroke="#4B8085" stroke-linecap="round"/>
<path d="M163.853 47.1688C165.154 47.3469 166.454 47.525 167.754 47.7031C168.305 47.7786 169.402 48.1407 169.949 47.8787" stroke="#4B8085" stroke-linecap="round"/>
<path d="M169.705 62.2426C169.891 60.9106 170.846 60.3256 172.049 60.0178C172.365 59.9368 172.632 59.8019 172.833 59.5302C172.947 59.3758 172.95 59.2018 173.054 59.052" stroke="#4B8085" stroke-linecap="round"/>
<path d="M174.541 52.3159C174.7 51.1854 174.858 50.0549 175.016 48.9243C175.08 48.4713 174.915 48.3493 174.68 47.9676C174.482 47.6473 174.327 47.2818 174.143 46.9502C174.037 46.757 173.763 46.7651 173.568 46.7385" stroke="#4B8085" stroke-linecap="round"/>
<path d="M193.31 96.5047C193.31 93.6187 193.31 90.7326 193.31 87.8465C193.31 85.4505 193.465 83.0999 193.757 80.719C193.956 79.0985 194.1 77.4523 194.519 75.8697C195.042 73.8924 195.707 71.5852 196.797 69.8245C197.233 69.1208 197.709 68.3856 198.242 67.7497C198.421 67.5365 198.662 67.3835 198.75 67.1218" stroke="#4B8085" stroke-linecap="round"/>
<path d="M202.884 65.9379C202.884 66.4187 202.743 66.8618 202.6 67.3191C202.138 68.7968 201.845 70.3224 201.518 71.8336C200.57 76.2077 199.767 80.6907 199.426 85.1557C199.064 89.9129 199.254 94.5991 199.487 99.3509C199.563 100.903 199.946 102.495 199.946 104.039" stroke="#4B8085" stroke-linecap="round"/>
<path d="M185.476 77.0237C186.432 77.9691 187.514 78.8692 188.196 80.0374C188.799 81.0686 189.342 82.1451 189.719 83.2663" stroke="#4B8085" stroke-linecap="round"/>
<path d="M188.414 70.8888C188.881 71.0044 189.37 71.4596 189.756 71.7259C190.541 72.2681 191.3 72.8643 191.956 73.5556C192.634 74.2696 193.246 75.0458 193.636 75.9474" stroke="#4B8085" stroke-linecap="round"/>
<path d="M201.87 69.2628C202.981 69.2628 203.854 71.04 204.371 71.806C204.437 71.9044 204.928 72.5192 204.931 72.4492C204.972 71.2779 204.931 70.0982 204.931 68.9263C204.931 67.8087 205.171 66.367 204.921 65.2549C204.779 64.6239 204.266 64.8341 204.401 65.433C204.69 66.7188 206.825 68.0287 207.852 68.5898C209.354 69.4109 211.199 70.6395 212.954 70.6878C213.082 70.6913 213.734 70.9442 213.734 70.757C213.734 70.2265 213.003 69.5167 212.714 69.1242C211.911 68.0372 210.946 67.2754 209.793 66.5909" stroke="#4B8085" stroke-linecap="round"/>
<path d="M195.928 59.4658C194.745 59.4658 194.163 59.2616 193.407 58.4069C193.324 58.3136 192.965 57.7266 192.907 58.021C192.67 59.2251 193.561 60.8983 194.027 61.9595C195.209 64.6511 196.934 65.3439 199.709 65.3439" stroke="#4B8085" stroke-linecap="round"/>
<path d="M199.349 64.9877C198.326 64.9877 197.302 64.9877 196.278 64.9877C195.44 64.9877 194.932 65.1952 194.167 65.522C193.864 65.6515 193.007 66.0564 193.337 66.0564C194.835 66.0564 196.283 66.9683 197.809 66.9471C199.342 66.9257 199.449 65.7267 200.61 65.3439" stroke="#4B8085" stroke-linecap="round"/>
<path d="M183.321 76.0366C183.1 77.6745 182.232 79.3635 181.509 80.8221C181.025 81.8003 180.605 82.9075 179.979 83.8102C179.827 84.0293 179.674 84.2218 179.505 84.4286C179.397 84.5622 179.025 84.7656 179.184 84.8332C179.317 84.8894 180.222 84.1847 180.306 84.1338C181.348 83.4994 182.328 82.8439 183.215 82.0011C184.878 80.4223 185.85 78.4278 187.264 76.6666C188.026 75.717 187.999 74.7882 186.581 74.7882C186.359 74.7882 186.184 74.7939 185.973 74.8691C185.61 74.9983 186.885 75.1005 186.966 75.1234C188.819 75.6471 190.193 77.4185 191.78 78.4236C191.975 78.5469 193.355 78.9286 193.077 78.3253C192.746 77.6049 192.303 76.9168 191.921 76.2216C191.336 75.1589 190.641 73.9249 189.362 73.5918C188.814 73.4494 187.98 73.4358 187.422 73.4358" stroke="#4B8085" stroke-linecap="round"/>
<path d="M187.422 73.1236C187.515 72.0626 188.256 70.9676 188.836 70.1067C189.399 69.2706 190.072 68.4082 190.881 67.7833C191.302 67.4578 191.949 66.8843 192.043 67.7255C192.109 68.3089 192.085 68.9901 192.026 69.5692C191.88 70.9925 190.884 72.1392 189.969 73.1814C189.537 73.6742 188.701 73.7612 188.158 74.164" stroke="#4B8085" stroke-linecap="round"/>
<path d="M202.372 102.245C203.514 102.099 204.647 101.777 205.745 101.442C207.82 100.807 208.94 99.2848 210.361 97.7029C213.461 94.2536 215.727 90.2793 218.554 86.6375C220.136 84.5994 221.974 82.8346 224.134 81.3933C224.42 81.2028 225.702 80.159 225.884 80.3395" stroke="#4B8085" stroke-linecap="round"/>
<path d="M210.361 96.5989C210.361 95.6854 210.241 94.6404 210.513 93.7636C211.338 91.1129 213.322 88.4667 214.775 86.1859C216.492 83.4905 218.214 80.6288 220.456 78.3071C222.584 76.1042 226.206 73.1323 229.461 72.8747C230.536 72.7896 231.469 72.3035 232.542 72.1973C233.378 72.1146 234.204 71.846 235.015 71.6452C235.425 71.5439 236.455 71.5221 236.791 71.2563C237.195 70.9364 239.021 71.7582 239.72 71.7582C239.994 71.7582 242.751 71.9447 242.751 72.0969C242.751 72.1719 241.727 72.4404 241.585 72.4858C239.593 73.119 237.79 74.2134 235.827 74.9197C234.361 75.4469 232.571 75.8777 231.135 76.5507C230.202 76.9879 228.597 77.3802 227.939 78.1942C227.65 78.5517 226.144 79.2104 225.656 79.2104" stroke="#4B8085" stroke-linecap="round"/>
<path d="M213.101 96.1472C214.944 96.1472 216.965 96.6364 218.452 95.4195C221.042 93.3016 223.507 90.9679 225.377 88.1931C226.983 85.8102 229.017 83.7954 230.906 81.6442C232.88 79.3975 234.818 76.9379 237.057 74.9447C237.959 74.1419 239.096 73.7342 240.037 73.113" stroke="#4B8085" stroke-linecap="round"/>
<path d="M154.621 83.8323C156.059 83.8323 157.497 83.8323 158.934 83.8323C160.791 83.8323 162.727 83.6357 164.447 84.4631C166.439 85.4219 168.27 86.8724 170.06 88.1486C171.698 89.3159 173.349 90.4633 174.893 91.751C177.797 94.1725 181.085 96.443 183.603 99.2796C184.21 99.9637 185.295 101.463 186.338 101.463" stroke="#4B8085" stroke-linecap="round"/>
<path d="M142.689 88.0157C144.124 86.6715 145.989 85.635 147.682 84.654C149.142 83.8082 150.696 82.9241 152.364 82.5706C154.213 82.1787 156.064 81.8 157.902 81.3587C160.795 80.6641 164.038 79.9241 167.014 80.6282C169.925 81.3169 171.689 83.3365 174.18 84.7951C174.933 85.2363 175.716 85.6287 176.336 86.256C176.849 86.7742 177.077 87.4787 177.461 88.0821C178.197 89.2409 179.377 90.253 179.726 91.6016C179.997 92.6452 180.293 93.6799 180.599 94.706C180.728 95.1405 180.888 95.7589 181.169 96.1171C181.204 96.1616 180.842 96.0839 180.75 96.0839" stroke="#4B8085" stroke-linecap="round"/>
<path d="M181.354 97.4286C179.69 96.2267 178.053 94.7553 176.068 94.0918C174.584 93.5958 173.028 93.2666 171.503 92.9131C168.744 92.2731 165.976 91.7136 163.247 90.9459C159.328 89.8432 155.619 87.928 151.517 87.6007C149.726 87.4579 147.869 87.2403 146.096 87.5592C145.822 87.6087 145.263 88.1766 145.106 87.8664" stroke="#4B8085" stroke-linecap="round"/>
<ellipse cx="263.432" cy="10.1575" rx="1.33664" ry="1.32227" fill="#FABEA4"/>
<ellipse cx="262.541" cy="120.347" rx="1.33664" ry="1.32227" fill="#FABEA4"/>
<ellipse cx="127.987" cy="9.27601" rx="1.33664" ry="1.32227" fill="#FABEA4"/>
<ellipse cx="157.393" cy="7.51301" rx="1.33664" ry="1.32227" fill="#FABEA4"/>
<ellipse cx="184.125" cy="7.51301" rx="1.33664" ry="1.32227" fill="#FABEA4"/>
<ellipse cx="210.858" cy="7.51301" rx="1.33664" ry="1.32227" fill="#FABEA4"/>
<ellipse cx="237.591" cy="7.51301" rx="1.33664" ry="1.32227" fill="#FABEA4"/>
<ellipse cx="264.324" cy="35.7214" rx="1.32227" ry="1.33664" transform="rotate(90 264.324 35.7214)" fill="#FABEA4"/>
<ellipse cx="264.324" cy="62.1669" rx="1.32227" ry="1.33664" transform="rotate(90 264.324 62.1669)" fill="#FABEA4"/>
<ellipse cx="264.324" cy="88.6123" rx="1.32227" ry="1.33664" transform="rotate(90 264.324 88.6123)" fill="#FABEA4"/>
<ellipse cx="263.432" cy="112.413" rx="1.32227" ry="1.33664" transform="rotate(90 263.432 112.413)" fill="#FABEA4"/>
<ellipse cx="127.095" cy="35.7214" rx="1.32227" ry="1.33664" transform="rotate(90 127.095 35.7214)" fill="#FABEA4"/>
<ellipse cx="127.095" cy="62.1669" rx="1.32227" ry="1.33664" transform="rotate(90 127.095 62.1669)" fill="#FABEA4"/>
<ellipse cx="127.095" cy="88.6123" rx="1.32227" ry="1.33664" transform="rotate(90 127.095 88.6123)" fill="#FABEA4"/>
<ellipse cx="158.284" cy="114.176" rx="1.33664" ry="1.32227" fill="#FABEA4"/>
<ellipse cx="185.016" cy="114.176" rx="1.33664" ry="1.32227" fill="#FABEA4"/>
<ellipse cx="211.749" cy="114.176" rx="1.33664" ry="1.32227" fill="#FABEA4"/>
<ellipse cx="238.482" cy="114.176" rx="1.33664" ry="1.32227" fill="#FABEA4"/>
<path d="M1.0061 229.214C1.0061 232.299 2.34274 235.825 7.25147 236.615C85.7646 234.913 346.749 236.707 346.749 236.707C346.749 236.707 361.007 238.47 361.007 229.214" stroke="white" stroke-width="2" stroke-linecap="round"/>
<path d="M1.00617 228.773C1.00617 225.688 0.560591 219.958 7.24378 219.076C86.1053 219.076 299.967 218.636 347.195 218.636C352.987 218.636 361.007 217.754 361.007 228.332" stroke="white" stroke-width="2" stroke-linecap="round"/>
<path d="M1.0061 230.977C1.00611 237.147 1.00611 242.028 1.89721 245.081C3.05504 249.048 7.24374 249.489 7.24374 249.489C7.24374 249.489 323.593 250.683 347.195 249.929C361.007 249.489 361.007 248.166 361.007 228.773" stroke="white" stroke-width="2" stroke-linecap="round"/>
<mask id="path-116-inside-1_183_728" fill="white">
<path fill-rule="evenodd" clip-rule="evenodd" d="M300.705 225.833C297.027 225.833 294.045 222.851 294.045 219.173C294.045 217.85 294.431 216.617 295.096 215.581C289.211 209.528 285.477 200.5 285.477 190.415C285.477 179.441 289.899 169.717 296.702 163.718C294.088 162.82 292.209 160.339 292.209 157.419C292.209 153.741 295.19 150.759 298.869 150.759L326.554 150.759C330.232 150.759 333.214 153.741 333.214 157.419C333.214 160.339 331.335 162.819 328.72 163.718C335.524 169.717 339.946 179.44 339.946 190.415C339.946 200.717 336.049 209.916 329.944 215.967C330.468 216.918 330.766 218.011 330.766 219.173C330.766 222.851 327.784 225.833 324.106 225.833L300.705 225.833Z"/>
</mask>
<path fill-rule="evenodd" clip-rule="evenodd" d="M300.705 225.833C297.027 225.833 294.045 222.851 294.045 219.173C294.045 217.85 294.431 216.617 295.096 215.581C289.211 209.528 285.477 200.5 285.477 190.415C285.477 179.441 289.899 169.717 296.702 163.718C294.088 162.82 292.209 160.339 292.209 157.419C292.209 153.741 295.19 150.759 298.869 150.759L326.554 150.759C330.232 150.759 333.214 153.741 333.214 157.419C333.214 160.339 331.335 162.819 328.72 163.718C335.524 169.717 339.946 179.44 339.946 190.415C339.946 200.717 336.049 209.916 329.944 215.967C330.468 216.918 330.766 218.011 330.766 219.173C330.766 222.851 327.784 225.833 324.106 225.833L300.705 225.833Z" fill="white"/>
<path d="M300.705 225.833L300.705 222.833L300.705 225.833ZM295.096 215.581L297.247 213.489L298.907 215.197L297.621 217.201L295.096 215.581ZM296.702 163.718L297.678 160.881L302.555 162.558L298.686 165.969L296.702 163.718ZM298.869 150.759L298.869 153.759L298.869 150.759ZM326.554 150.759L326.554 147.759L326.554 150.759ZM328.72 163.718L326.736 165.969L322.868 162.558L327.745 160.881L328.72 163.718ZM329.944 215.967L327.316 217.413L326.225 215.43L327.833 213.836L329.944 215.967ZM324.106 225.833L324.106 228.833L324.106 225.833ZM297.045 219.173C297.045 221.195 298.683 222.833 300.705 222.833L300.705 228.833C295.37 228.833 291.045 224.508 291.045 219.173L297.045 219.173ZM297.621 217.201C297.256 217.769 297.045 218.442 297.045 219.173L291.045 219.173C291.045 217.259 291.605 215.466 292.571 213.96L297.621 217.201ZM292.945 217.672C286.476 211.019 282.477 201.222 282.477 190.415L288.477 190.415C288.477 199.778 291.946 208.038 297.247 213.489L292.945 217.672ZM282.477 190.415C282.477 178.661 287.21 168.089 294.718 161.468L298.686 165.969C292.588 171.346 288.477 180.22 288.477 190.415L282.477 190.415ZM295.727 166.556C291.938 165.253 289.209 161.659 289.209 157.419L295.209 157.419C295.209 159.019 296.237 160.386 297.678 160.881L295.727 166.556ZM289.209 157.419C289.209 152.084 293.534 147.759 298.869 147.759L298.869 153.759C296.847 153.759 295.209 155.398 295.209 157.419L289.209 157.419ZM298.869 147.759L326.554 147.759L326.554 153.759L298.869 153.759L298.869 147.759ZM326.554 147.759C331.889 147.759 336.214 152.084 336.214 157.419L330.214 157.419C330.214 155.398 328.575 153.759 326.554 153.759L326.554 147.759ZM336.214 157.419C336.214 161.658 333.484 165.253 329.696 166.555L327.745 160.881C329.185 160.386 330.214 159.019 330.214 157.419L336.214 157.419ZM330.704 161.468C338.213 168.088 342.946 178.661 342.946 190.415L336.946 190.415C336.946 180.22 332.835 171.346 326.736 165.969L330.704 161.468ZM342.946 190.415C342.946 201.453 338.773 211.44 332.056 218.098L327.833 213.836C333.325 208.392 336.946 199.98 336.946 190.415L342.946 190.415ZM327.766 219.173C327.766 218.529 327.602 217.933 327.316 217.413L332.573 214.52C333.334 215.903 333.766 217.492 333.766 219.173L327.766 219.173ZM324.106 222.833C326.127 222.833 327.766 221.195 327.766 219.173L333.766 219.173C333.766 224.508 329.441 228.833 324.106 228.833L324.106 222.833ZM300.705 222.833L324.106 222.833L324.106 228.833L300.705 228.833L300.705 222.833Z" fill="#4B8085" mask="url(#path-116-inside-1_183_728)"/>
<ellipse cx="6.67302" cy="6.18018" rx="6.67302" ry="6.18018" transform="matrix(-0.927586 0.373609 0.3806 0.92474 294.514 128.836)" fill="#FFA984"/>
<ellipse cx="4.89354" cy="4.41441" rx="4.89354" ry="4.41441" transform="matrix(-0.927586 0.373609 0.3806 0.92474 298.181 133.07)" fill="#FFA984"/>
<path d="M299.423 142.065C299.507 141.869 299.591 141.756 299.608 141.536C299.64 141.125 299.601 140.712 299.63 140.301C299.675 139.66 299.481 138.922 299.322 138.296C299.218 137.888 299.148 137.485 298.986 137.092C298.849 136.758 298.52 136.469 298.269 136.219C297.339 135.291 296.463 134.301 295.414 133.502C294.977 133.17 294.562 132.768 294.35 132.251C294.277 132.074 294.205 131.898 294.132 131.722C294.093 131.626 294.211 131.914 294.25 132.009C294.363 132.283 294.495 132.555 294.565 132.843C294.606 133.014 294.596 133.196 294.637 133.36C294.71 133.649 294.648 134.001 294.664 134.303C294.673 134.458 294.648 134.623 294.643 134.779C294.635 135.033 294.733 135.277 294.765 135.526C294.84 136.097 294.967 136.67 295.024 137.241C295.105 138.054 295.124 138.92 294.718 139.639C294.696 139.678 294.851 139.781 294.897 139.794C294.979 139.818 295.127 140.174 295.168 140.251C295.375 140.639 295.707 140.918 296.071 141.173C296.563 141.517 297.11 141.835 297.682 142.024C297.891 142.093 298.116 142.136 298.328 142.196C298.386 142.213 298.758 142.402 298.733 142.343" stroke="#4B8085" stroke-linecap="round"/>
<path d="M299.206 142.096C298.834 142.245 298.524 142.468 298.177 142.668C297.676 142.957 297.146 143.21 296.606 143.427C296.295 143.552 295.784 143.888 295.452 143.835C294.983 143.761 294.534 143.622 294.066 143.54C293.578 143.455 293.103 143.295 292.611 143.217C292.16 143.145 291.908 142.863 291.432 142.896C291.038 142.923 290.655 142.974 290.261 142.915C289.894 142.861 289.552 142.737 289.191 142.649C288.718 142.534 288.196 142.295 288.005 141.831" stroke="#4B8085" stroke-linecap="round"/>
<path d="M294.589 140.373C294.524 140.214 294.449 140.134 294.277 140.066C293.727 139.847 293.198 139.622 292.594 139.645C292.134 139.662 291.692 139.725 291.263 139.894C290.813 140.07 290.306 140.21 289.944 140.538C289.113 141.292 288.442 142.224 287.367 142.656" stroke="#4B8085" stroke-linecap="round"/>
<path d="M294.463 140.765C293.828 141.021 293.095 140.944 292.437 141.133C291.615 141.368 290.837 141.804 290.057 142.139C289.029 142.579 288.035 143.08 286.903 142.786" stroke="#4B8085" stroke-linecap="round"/>
<path d="M294.304 139.123C294.094 138.611 293.883 138.099 293.672 137.587C293.398 136.92 292.979 136.204 293.004 135.468C293.046 134.231 292.793 132.968 293.427 131.832C293.544 131.623 293.791 131.313 293.691 131.069C293.621 130.9 293.767 131.113 293.819 131.163C294.091 131.424 294.375 131.676 294.63 131.954C295.124 132.494 295.407 133.115 295.507 133.806" stroke="#4B8085" stroke-linecap="round"/>
<path d="M292.665 131.369C292.459 130.87 292.107 130.706 291.645 130.427C290.864 129.958 289.989 130.456 289.248 130.755C288.933 130.882 288.561 130.986 288.22 131.011C287.969 131.03 288.085 131.098 288.156 131.315C288.377 131.985 287.457 132.382 286.979 132.635C286.587 132.843 286.275 133.287 286.001 133.611C285.887 133.745 285.445 134.339 285.493 134.456C285.529 134.544 286.484 134.038 286.575 133.989C287.287 133.606 287.987 133.196 288.739 132.893C289.285 132.673 289.843 132.383 290.418 132.248C290.947 132.124 291.483 131.942 292.03 131.921C292.242 131.913 292.572 131.975 292.767 131.896" stroke="#4B8085" stroke-linecap="round"/>
<path d="M285.419 134.571C284.908 134.777 284.249 134.94 284.17 135.586C284.121 135.986 284.198 136.472 284.103 136.851C284.042 137.093 284.136 137.377 284.088 137.622C284.061 137.759 283.608 138.28 283.645 138.337C283.709 138.437 284.544 138.729 284.694 138.613C284.723 138.59 284.73 138.205 284.734 138.145C284.75 137.941 284.811 137.819 284.868 137.633C284.93 137.433 285.058 137.244 285.19 137.08C285.368 136.858 285.404 136.621 285.456 136.344C285.498 136.117 285.581 135.893 285.606 135.662C285.625 135.487 285.588 135.324 285.66 135.157" stroke="#4B8085" stroke-linecap="round"/>
<path d="M284.657 139.143C285.035 140.061 285.413 140.98 285.791 141.898C285.89 142.139 286.183 142.318 286.378 142.486" stroke="#4B8085" stroke-linecap="round"/>
<path d="M288.277 141.096C287.886 141.254 287.38 140.742 287.121 140.513C286.898 140.317 286.611 140.081 286.447 139.831C286.272 139.564 286.181 139.216 286.06 138.922C285.852 138.416 285.522 137.842 285.564 137.299" stroke="#4B8085" stroke-linecap="round"/>
<path d="M292.293 135.214C292.241 135.236 291.432 135.497 291.486 135.628C291.538 135.752 291.511 135.885 291.502 136.016C291.488 136.253 291.486 136.51 291.456 136.742C291.407 137.131 291.263 137.403 291.093 137.744C291.004 137.923 290.929 138.137 290.835 138.303C290.736 138.477 291.114 138.772 291.17 138.908" stroke="#4B8085" stroke-linecap="round"/>
<path d="M291.826 134.777C291.644 134.334 290.955 134.358 290.529 134.358C289.674 134.356 289.034 134.854 288.272 135.182C287.936 135.326 287.554 135.453 287.26 135.678C287.142 135.768 287.232 135.717 287.33 135.722C287.544 135.734 287.749 135.73 287.959 135.794C288.203 135.868 288.232 136.1 288.324 136.323C288.424 136.567 288.21 136.61 288.121 136.806C288.041 136.979 287.973 137.164 287.893 137.34C287.819 137.503 287.672 137.639 287.615 137.806C287.555 137.986 287.595 138.165 287.607 138.352" stroke="#4B8085" stroke-linecap="round"/>
<path d="M290.199 135.432C290.352 135.803 289.973 136.302 289.692 136.575C289.627 136.638 288.952 137.258 288.855 137.054C288.631 136.586 288.674 136.014 289.007 135.6C289.271 135.271 289.76 135.124 290.077 134.856" stroke="#4B8085" stroke-linecap="round"/>
<path d="M290.37 139.059C290.186 138.612 289.672 138.486 289.226 138.452C288.732 138.415 288.304 138.641 287.857 138.82" stroke="#4B8085" stroke-linecap="round"/>
<path d="M292.081 134.368C291.977 134.115 291.895 133.863 291.693 133.665C291.363 133.342 290.981 133.13 290.53 133.046C290.292 133.002 290.053 132.925 289.813 132.902C289.662 132.888 289.519 132.908 289.371 132.897" stroke="#4B8085" stroke-linecap="round"/>
<path d="M286.984 135.414C286.965 135.223 287.116 135.054 287.246 134.925C287.494 134.678 287.715 134.436 287.916 134.148C287.989 134.044 288.064 133.953 288.148 133.859C288.198 133.802 288.225 133.727 288.282 133.679" stroke="#4B8085" stroke-linecap="round"/>
<path d="M286.99 135.46L285.906 135.897" stroke="#4B8085" stroke-linecap="round"/>
<path d="M287.353 138.888L286.919 139.063" stroke="#4B8085" stroke-linecap="round"/>
<path d="M286.438 135.976C286.636 136.457 286.834 136.938 287.032 137.419C287.116 137.622 287.365 138.007 287.317 138.243" stroke="#4B8085" stroke-linecap="round"/>
<path d="M292.92 136.733C292.416 136.936 292.281 137.359 292.279 137.851C292.279 137.98 292.252 138.096 292.166 138.2C292.116 138.259 292.049 138.277 292 138.332" stroke="#4B8085" stroke-linecap="round"/>
<path d="M289.508 139.566C289.081 139.738 288.653 139.91 288.226 140.082C288.055 140.151 287.991 140.1 287.818 140.048C287.673 140.003 287.514 139.98 287.366 139.942C287.28 139.92 287.256 139.814 287.227 139.743" stroke="#4B8085" stroke-linecap="round"/>
<ellipse cx="6.6205" cy="6.22918" rx="6.6205" ry="6.22918" transform="matrix(-0.359368 -0.933196 -0.935755 0.35265 337.191 130.925)" fill="#FFA984"/>
<ellipse cx="4.85503" cy="4.44941" rx="4.85503" ry="4.44941" transform="matrix(-0.359368 -0.933196 -0.935755 0.35265 332.829 134.455)" fill="#FFA984"/>
<path d="M323.711 135.48C323.907 135.567 324.019 135.653 324.241 135.675C324.656 135.716 325.074 135.687 325.489 135.725C326.136 135.784 326.886 135.609 327.522 135.465C327.936 135.372 328.346 135.311 328.746 135.161C329.087 135.032 329.386 134.714 329.645 134.471C330.604 133.572 331.624 132.729 332.455 131.709C332.801 131.285 333.217 130.884 333.744 130.685C333.924 130.617 334.104 130.549 334.283 130.482C334.381 130.445 334.088 130.555 333.99 130.592C333.711 130.697 333.433 130.821 333.141 130.884C332.967 130.921 332.784 130.907 332.616 130.944C332.323 131.009 331.969 130.94 331.663 130.95C331.506 130.954 331.339 130.926 331.182 130.918C330.926 130.904 330.677 130.995 330.425 131.022C329.846 131.083 329.264 131.195 328.685 131.239C327.862 131.301 326.986 131.299 326.269 130.881C326.23 130.859 326.123 131.01 326.108 131.055C326.082 131.136 325.719 131.274 325.641 131.312C325.244 131.509 324.954 131.831 324.689 132.185C324.33 132.664 323.996 133.197 323.792 133.759C323.718 133.964 323.668 134.186 323.603 134.394C323.585 134.451 323.385 134.814 323.446 134.791" stroke="#4B8085" stroke-linecap="round"/>
<path d="M323.685 135.265C323.542 134.894 323.324 134.582 323.13 134.234C322.848 133.732 322.606 133.202 322.398 132.663C322.278 132.352 321.951 131.84 322.012 131.512C322.098 131.05 322.248 130.61 322.341 130.148C322.438 129.668 322.611 129.202 322.701 128.717C322.784 128.272 323.075 128.029 323.052 127.558C323.033 127.167 322.991 126.787 323.059 126.4C323.122 126.038 323.256 125.702 323.353 125.347C323.48 124.882 323.733 124.371 324.206 124.192" stroke="#4B8085" stroke-linecap="round"/>
<path d="M325.53 130.737C325.692 130.676 325.775 130.604 325.848 130.436C326.082 129.897 326.321 129.379 326.311 128.781C326.304 128.325 326.251 127.887 326.09 127.458C325.922 127.01 325.792 126.505 325.468 126.14C324.726 125.3 323.799 124.615 323.386 123.543" stroke="#4B8085" stroke-linecap="round"/>
<path d="M325.137 130.604C324.893 129.97 324.987 129.247 324.811 128.591C324.592 127.774 324.169 126.995 323.849 126.215C323.427 125.189 322.943 124.194 323.265 123.082" stroke="#4B8085" stroke-linecap="round"/>
<path d="M326.8 130.484C327.322 130.287 327.844 130.091 328.367 129.894C329.047 129.637 329.78 129.24 330.523 129.281C331.773 129.351 333.054 129.129 334.188 129.782C334.397 129.903 334.704 130.154 334.953 130.06C335.125 129.995 334.907 130.134 334.855 130.185C334.585 130.448 334.324 130.723 334.037 130.969C333.481 131.445 332.847 131.711 332.146 131.794" stroke="#4B8085" stroke-linecap="round"/>
<path d="M334.674 129.038C335.182 128.847 335.357 128.502 335.648 128.051C336.141 127.29 335.656 126.413 335.372 125.673C335.251 125.359 335.154 124.989 335.136 124.65C335.123 124.402 335.052 124.515 334.831 124.581C334.148 124.784 333.768 123.865 333.523 123.386C333.322 122.994 332.88 122.675 332.559 122.397C332.426 122.281 331.835 121.831 331.716 121.876C331.627 121.909 332.116 122.865 332.164 122.956C332.534 123.669 332.933 124.371 333.222 125.121C333.432 125.666 333.713 126.225 333.836 126.796C333.949 127.323 334.121 127.857 334.13 128.398C334.133 128.608 334.063 128.933 334.138 129.127" stroke="#4B8085" stroke-linecap="round"/>
<path d="M331.601 121.8C331.405 121.29 331.256 120.634 330.604 120.542C330.201 120.484 329.708 120.549 329.327 120.447C329.084 120.381 328.795 120.468 328.549 120.414C328.41 120.385 327.895 119.925 327.836 119.96C327.733 120.021 327.419 120.84 327.533 120.991C327.556 121.021 327.945 121.036 328.005 121.042C328.211 121.062 328.333 121.125 328.52 121.186C328.721 121.252 328.908 121.382 329.071 121.517C329.291 121.698 329.531 121.739 329.809 121.796C330.037 121.843 330.263 121.93 330.495 121.96C330.671 121.983 330.837 121.951 331.004 122.025" stroke="#4B8085" stroke-linecap="round"/>
<path d="M326.999 120.942C326.062 121.295 325.125 121.648 324.188 122.001C323.943 122.094 323.755 122.38 323.58 122.568" stroke="#4B8085" stroke-linecap="round"/>
<path d="M324.942 124.478C324.792 124.088 325.32 123.6 325.558 123.348C325.761 123.132 326.006 122.854 326.263 122.697C326.536 122.53 326.89 122.448 327.19 122.335C327.706 122.141 328.294 121.828 328.841 121.882" stroke="#4B8085" stroke-linecap="round"/>
<path d="M330.796 128.584C330.776 128.532 330.53 127.726 330.397 127.776C330.269 127.824 330.136 127.795 330.004 127.784C329.765 127.763 329.505 127.756 329.271 127.722C328.879 127.664 328.607 127.515 328.266 127.339C328.088 127.248 327.873 127.168 327.707 127.071C327.534 126.97 327.228 127.336 327.089 127.389" stroke="#4B8085" stroke-linecap="round"/>
<path d="M331.248 128.132C331.7 127.961 331.691 127.279 331.701 126.859C331.722 126.013 331.234 125.369 330.92 124.608C330.781 124.272 330.662 123.892 330.441 123.596C330.353 123.477 330.402 123.567 330.395 123.663C330.378 123.875 330.378 124.078 330.308 124.285C330.227 124.523 329.993 124.547 329.765 124.633C329.516 124.727 329.477 124.514 329.281 124.421C329.108 124.339 328.923 124.267 328.747 124.184C328.584 124.107 328.45 123.958 328.283 123.899C328.102 123.835 327.92 123.87 327.731 123.878" stroke="#4B8085" stroke-linecap="round"/>
<path d="M330.623 126.508C330.244 126.65 329.749 126.265 329.48 125.98C329.418 125.915 328.807 125.233 329.015 125.142C329.492 124.931 330.07 124.986 330.481 125.325C330.807 125.593 330.944 126.081 331.208 126.4" stroke="#4B8085" stroke-linecap="round"/>
<path d="M326.953 126.594C327.409 126.422 327.548 125.917 327.593 125.477C327.642 124.99 327.423 124.56 327.252 124.115" stroke="#4B8085" stroke-linecap="round"/>
<path d="M331.656 128.393C331.914 128.296 332.17 128.22 332.375 128.025C332.708 127.707 332.932 127.333 333.027 126.889C333.077 126.655 333.16 126.42 333.188 126.183C333.206 126.035 333.189 125.893 333.204 125.746" stroke="#4B8085" stroke-linecap="round"/>
<path d="M330.714 123.329C330.908 123.314 331.075 123.467 331.202 123.598C331.446 123.849 331.686 124.074 331.973 124.279C332.076 124.353 332.166 124.43 332.26 124.515C332.315 124.566 332.391 124.594 332.438 124.652" stroke="#4B8085" stroke-linecap="round"/>
<path d="M330.668 123.334L330.251 122.251" stroke="#4B8085" stroke-linecap="round"/>
<path d="M327.195 123.615L327.029 123.182" stroke="#4B8085" stroke-linecap="round"/>
<path d="M330.159 122.776C329.669 122.96 329.178 123.145 328.687 123.33C328.48 123.409 328.085 123.647 327.848 123.594" stroke="#4B8085" stroke-linecap="round"/>
<path d="M329.246 129.169C329.053 128.667 328.628 128.524 328.131 128.51C328 128.507 327.884 128.478 327.781 128.39C327.723 128.34 327.706 128.273 327.652 128.223" stroke="#4B8085" stroke-linecap="round"/>
<path d="M326.461 125.73C326.297 125.304 326.132 124.877 325.968 124.451C325.902 124.28 325.955 124.218 326.012 124.048C326.06 123.906 326.088 123.75 326.129 123.604C326.153 123.519 326.261 123.498 326.334 123.471" stroke="#4B8085" stroke-linecap="round"/>
<path d="M303.108 140.142C304.013 143.487 308.894 145.46 308.894 145.46C308.894 145.46 312.541 141.215 311.362 138.021C310.245 134.995 304.983 131.692 304.983 131.692C304.983 131.692 302.221 136.863 303.108 140.142Z" fill="#5BD2DC"/>
<path d="M308.894 145.46L304.983 131.692M308.894 145.46C308.894 145.46 304.013 143.487 303.108 140.142C302.221 136.863 304.983 131.692 304.983 131.692M308.894 145.46C308.894 145.46 312.541 141.215 311.362 138.021C310.245 134.995 304.983 131.692 304.983 131.692" stroke="#4B8085"/>
<path d="M322.582 148.845C319.143 149.488 315.23 145.992 315.23 145.992C315.23 145.992 317.516 140.901 320.936 140.568C324.177 140.252 329.467 143.511 329.467 143.511C329.467 143.511 325.953 148.215 322.582 148.845Z" fill="#5BD2DC"/>
<path d="M315.23 145.992L329.467 143.511M315.23 145.992C315.23 145.992 319.143 149.488 322.582 148.845C325.953 148.215 329.467 143.511 329.467 143.511M315.23 145.992C315.23 145.992 317.516 140.901 320.936 140.568C324.177 140.252 329.467 143.511 329.467 143.511" stroke="#4B8085"/>
<path d="M323.906 134.499C323.906 134.499 315.603 139.472 312.8 152.19C307.679 141.745 299.254 141.568 299.254 141.568" stroke="#4B8085" stroke-width="2"/>
<rect x="73.1846" y="208.057" width="32.9704" height="13.2227" rx="6.61136" fill="#4B8085"/>
<mask id="path-168-inside-2_183_728" fill="white">
<rect x="32.1943" y="104.92" width="113.169" height="107.545" rx="8"/>
</mask>
<rect x="32.1943" y="104.92" width="113.169" height="107.545" rx="8" fill="white" stroke="#5BD2DC" stroke-width="20" mask="url(#path-168-inside-2_183_728)"/>
<rect width="15.3048" height="15.0863" rx="1" transform="matrix(0.868349 0.495953 0 1 76.8252 176.093)" fill="#4B8085"/>
<rect x="0.434175" y="0.252023" width="13.6267" height="14.4328" rx="0.5" transform="matrix(0.868349 -0.495953 0 1 89.2813 183.563)" fill="#5BD2DC" stroke="#4B8085"/>
<path d="M78.0531 176.991C77.8095 176.858 77.7991 176.637 78.0298 176.497L88.3279 170.236C88.561 170.094 88.9515 170.088 89.1983 170.222L100.804 176.52C101.055 176.656 101.059 176.884 100.813 177.023L90.0864 183.087C89.8501 183.22 89.4706 183.222 89.2302 183.091L78.0531 176.991Z" fill="#FFD8BA" stroke="#4B8085"/>
<path d="M82.5297 150.662C82.5297 150.662 88.7676 155.607 88.7674 177.989C88.7676 155.607 95.4617 139.74 95.4617 139.74" stroke="#4B8085" stroke-width="2"/>
<path d="M102.145 163.1C97.6954 165.283 91.7065 163.583 91.7065 163.583C91.7065 163.583 93.6429 157.518 98.135 155.65C102.392 153.88 110.165 154.726 110.165 154.726C110.165 154.726 106.506 160.961 102.145 163.1Z" fill="#5BD2DC"/>
<path d="M91.7065 163.583L110.165 154.726M91.7065 163.583C91.7065 163.583 97.6954 165.283 102.145 163.1C106.506 160.961 110.165 154.726 110.165 154.726M91.7065 163.583C91.7065 163.583 93.6429 157.518 98.135 155.65C102.392 153.88 110.165 154.726 110.165 154.726" stroke="#4B8085"/>
<path d="M75.8815 166.515C80.331 168.698 86.3198 166.999 86.3198 166.999C86.3198 166.999 84.3835 160.933 79.8914 159.065C75.6346 157.295 67.8617 158.141 67.8617 158.141C67.8617 158.141 71.5203 164.376 75.8815 166.515Z" fill="#5BD2DC"/>
<path d="M86.3198 166.999L67.8617 158.141M86.3198 166.999C86.3198 166.999 80.331 168.698 75.8815 166.515C71.5203 164.376 67.8617 158.141 67.8617 158.141M86.3198 166.999C86.3198 166.999 84.3835 160.933 79.8914 159.065C75.6346 157.295 67.8617 158.141 67.8617 158.141" stroke="#4B8085"/>
<mask id="path-177-inside-3_183_728" fill="white">
<path fill-rule="evenodd" clip-rule="evenodd" d="M111.293 131.825L99.3251 121.482L94.4449 127.008C93.9685 127.434 93.5315 127.921 93.1458 128.466C90.4878 132.219 91.2739 137.3 94.9016 139.814C98.5294 142.328 103.625 141.323 106.283 137.569C106.354 137.469 106.423 137.368 106.489 137.266L111.293 131.825Z"/>
</mask>
<path fill-rule="evenodd" clip-rule="evenodd" d="M111.293 131.825L99.3251 121.482L94.4449 127.008C93.9685 127.434 93.5315 127.921 93.1458 128.466C90.4878 132.219 91.2739 137.3 94.9016 139.814C98.5294 142.328 103.625 141.323 106.283 137.569C106.354 137.469 106.423 137.368 106.489 137.266L111.293 131.825Z" fill="#FFA984"/>
<path d="M99.3251 121.482L99.979 120.725L99.2304 120.078L98.5755 120.82L99.3251 121.482ZM111.293 131.825L112.043 132.487L112.712 131.729L111.947 131.068L111.293 131.825ZM94.4449 127.008L95.112 127.753L95.1557 127.713L95.1945 127.67L94.4449 127.008ZM93.1458 128.466L93.9619 129.044L93.1458 128.466ZM94.9016 139.814L95.4712 138.992L94.9016 139.814ZM106.283 137.569L105.467 136.991L105.467 136.991L106.283 137.569ZM106.489 137.266L105.739 136.604L105.69 136.659L105.649 136.722L106.489 137.266ZM98.6712 122.238L110.639 132.581L111.947 131.068L99.979 120.725L98.6712 122.238ZM95.1945 127.67L100.075 122.143L98.5755 120.82L93.6954 126.346L95.1945 127.67ZM93.9619 129.044C94.304 128.56 94.6909 128.13 95.112 127.753L93.7779 126.263C93.2461 126.739 92.759 127.282 92.3297 127.888L93.9619 129.044ZM95.4712 138.992C92.3328 136.817 91.6023 132.376 93.9619 129.044L92.3297 127.888C89.3733 132.063 90.215 137.783 94.3321 140.636L95.4712 138.992ZM105.467 136.991C103.103 140.329 98.6171 141.172 95.4712 138.992L94.3321 140.636C98.4416 143.484 104.147 142.317 107.099 138.147L105.467 136.991ZM105.649 136.722C105.591 136.813 105.53 136.902 105.467 136.991L107.099 138.147C107.178 138.036 107.254 137.923 107.328 137.809L105.649 136.722ZM110.544 131.163L105.739 136.604L107.238 137.927L112.043 132.487L110.544 131.163Z" fill="#4B8085" mask="url(#path-177-inside-3_183_728)"/>
<path d="M111.38 131.092C110.913 131.751 109.862 132.076 108.315 131.849C106.802 131.627 104.974 130.889 103.21 129.666C101.446 128.444 100.121 126.997 99.3925 125.666C98.6481 124.305 98.5981 123.217 99.0645 122.558C99.5308 121.9 100.582 121.574 102.129 121.802C103.642 122.024 105.47 122.762 107.234 123.984C108.998 125.207 110.324 126.654 111.052 127.985C111.796 129.345 111.846 130.434 111.38 131.092Z" fill="#FFD8BA" stroke="#4B8085"/>
<mask id="path-180-inside-4_183_728" fill="white">
<path fill-rule="evenodd" clip-rule="evenodd" d="M67.0714 143.285L79.0397 132.941L83.9199 138.467C84.3963 138.894 84.8333 139.381 85.219 139.925C87.877 143.679 87.0908 148.76 83.4631 151.274C79.8354 153.788 74.7398 152.783 72.0818 149.029C72.0108 148.929 71.9422 148.827 71.876 148.725L67.0714 143.285Z"/>
</mask>
<path fill-rule="evenodd" clip-rule="evenodd" d="M67.0714 143.285L79.0397 132.941L83.9199 138.467C84.3963 138.894 84.8333 139.381 85.219 139.925C87.877 143.679 87.0908 148.76 83.4631 151.274C79.8354 153.788 74.7398 152.783 72.0818 149.029C72.0108 148.929 71.9422 148.827 71.876 148.725L67.0714 143.285Z" fill="#FFA984"/>
<path d="M79.0397 132.941L78.3858 132.185L79.1343 131.538L79.7892 132.279L79.0397 132.941ZM67.0714 143.285L66.3218 143.946L65.6528 143.189L66.4175 142.528L67.0714 143.285ZM83.9199 138.467L83.2528 139.212L83.2092 139.173L83.1703 139.129L83.9199 138.467ZM85.219 139.925L84.4029 140.503L85.219 139.925ZM83.4631 151.274L82.8935 150.452L83.4631 151.274ZM72.0818 149.029L72.8979 148.451L72.0818 149.029ZM71.876 148.725L72.6256 148.063L72.6749 148.119L72.7154 148.182L71.876 148.725ZM79.6935 133.698L67.7252 144.041L66.4175 142.528L78.3858 132.185L79.6935 133.698ZM83.1703 139.129L78.2901 133.603L79.7892 132.279L84.6695 137.805L83.1703 139.129ZM84.4029 140.503C84.0608 140.02 83.6739 139.589 83.2528 139.212L84.587 137.722C85.1187 138.199 85.6058 138.741 86.0351 139.347L84.4029 140.503ZM82.8935 150.452C86.0319 148.277 86.7624 143.836 84.4029 140.503L86.0351 139.347C88.9915 143.523 88.1497 149.243 84.0327 152.096L82.8935 150.452ZM72.8979 148.451C75.2614 151.789 79.7476 152.632 82.8935 150.452L84.0327 152.096C79.9231 154.944 74.2182 153.776 71.2657 149.607L72.8979 148.451ZM72.7154 148.182C72.7741 148.272 72.8349 148.362 72.8979 148.451L71.2657 149.607C71.1866 149.495 71.1103 149.382 71.0366 149.269L72.7154 148.182ZM67.8209 142.623L72.6256 148.063L71.1264 149.387L66.3218 143.946L67.8209 142.623Z" fill="#4B8085" mask="url(#path-180-inside-4_183_728)"/>
<path d="M66.9851 142.552C67.4514 143.211 68.5026 143.536 70.0494 143.309C71.5624 143.086 73.3902 142.348 75.1544 141.126C76.9185 139.903 78.2442 138.456 78.9723 137.125C79.7166 135.765 79.7666 134.677 79.3003 134.018C78.834 133.359 77.7828 133.034 76.236 133.261C74.723 133.483 72.8951 134.222 71.131 135.444C69.3669 136.666 68.0412 138.114 67.3131 139.444C66.5688 140.805 66.5187 141.893 66.9851 142.552Z" fill="#FFD8BA" stroke="#4B8085"/>
<mask id="path-183-inside-5_183_728" fill="white">
<rect x="32.1943" y="104.92" width="113.169" height="108.426" rx="4"/>
</mask>
<rect x="32.1943" y="104.92" width="113.169" height="108.426" rx="4" stroke="#4B8085" stroke-width="10" mask="url(#path-183-inside-5_183_728)"/>
<line x1="106.655" y1="236.266" x2="106.655" y2="249.489" stroke="white"/>
<line x1="266.16" y1="237.147" x2="266.16" y2="249.489" stroke="white"/>
<line x1="8.63477" y1="237.147" x2="8.63477" y2="249.489" stroke="white"/>
<line x1="353.487" y1="237.147" x2="353.487" y2="249.489" stroke="white"/>
<path d="M90.5607 249.489C94.1252 271.967 113.284 294.887 139.125 270.204" stroke="white" stroke-width="2"/>
<mask id="path-189-inside-6_183_728" fill="white">
<path fill-rule="evenodd" clip-rule="evenodd" d="M258.276 262.739C257.208 259.577 254.217 257.301 250.695 257.301H151.014C148.57 257.301 146.26 258.418 144.743 260.334L141.341 264.631C137.102 269.984 141.086 277.845 147.909 277.592L241.803 274.105L242.702 320.172C242.828 326.604 250.106 330.297 255.343 326.588L255.766 326.289C257.872 324.797 259.123 322.376 259.123 319.789L259.123 266.329C259.123 265.04 258.818 263.82 258.276 262.739Z"/>
</mask>
<path fill-rule="evenodd" clip-rule="evenodd" d="M258.276 262.739C257.208 259.577 254.217 257.301 250.695 257.301H151.014C148.57 257.301 146.26 258.418 144.743 260.334L141.341 264.631C137.102 269.984 141.086 277.845 147.909 277.592L241.803 274.105L242.702 320.172C242.828 326.604 250.106 330.297 255.343 326.588L255.766 326.289C257.872 324.797 259.123 322.376 259.123 319.789L259.123 266.329C259.123 265.04 258.818 263.82 258.276 262.739Z" fill="#4B8085"/>
<path d="M258.276 262.739L256.381 263.379L256.425 263.511L256.488 263.635L258.276 262.739ZM144.743 260.334L146.311 261.576L144.743 260.334ZM141.341 264.631L142.908 265.872V265.872L141.341 264.631ZM147.909 277.592L147.835 275.593L147.909 277.592ZM241.803 274.105L243.802 274.066L243.763 272.031L241.729 272.106L241.803 274.105ZM242.702 320.172L240.703 320.211L242.702 320.172ZM255.343 326.588L254.187 324.956L254.187 324.956L255.343 326.588ZM255.766 326.289L256.922 327.921L256.922 327.921L255.766 326.289ZM259.123 319.789H261.123H259.123ZM259.123 266.329H257.123H259.123ZM260.171 262.099C258.836 258.149 255.101 255.301 250.695 255.301V259.301C253.333 259.301 255.579 261.005 256.381 263.379L260.171 262.099ZM250.695 255.301H151.014V259.301H250.695V255.301ZM151.014 255.301C147.959 255.301 145.071 256.697 143.175 259.093L146.311 261.576C147.449 260.139 149.181 259.301 151.014 259.301V255.301ZM143.175 259.093L139.773 263.389L142.908 265.872L146.311 261.576L143.175 259.093ZM139.773 263.389C134.474 270.081 139.454 279.907 147.984 279.59L147.835 275.593C142.718 275.783 139.729 269.887 142.908 265.872L139.773 263.389ZM147.984 279.59L241.877 276.103L241.729 272.106L147.835 275.593L147.984 279.59ZM239.803 274.144L240.703 320.211L244.702 320.133L243.802 274.066L239.803 274.144ZM240.703 320.211C240.859 328.235 249.941 332.864 256.499 328.22L254.187 324.956C250.27 327.73 244.796 324.972 244.702 320.133L240.703 320.211ZM256.499 328.22L256.922 327.921L254.61 324.657L254.187 324.956L256.499 328.22ZM256.922 327.921C259.559 326.053 261.123 323.023 261.123 319.789H257.123C257.123 321.729 256.185 323.541 254.61 324.657L256.922 327.921ZM261.123 319.789L261.123 266.329L257.123 266.329L257.123 319.789H261.123ZM261.123 266.329C261.123 264.721 260.742 263.195 260.064 261.843L256.488 263.635C256.894 264.445 257.123 265.359 257.123 266.329H261.123Z" fill="white" mask="url(#path-189-inside-6_183_728)"/>
<rect x="-1" y="1" width="113.35" height="63.6595" rx="7" transform="matrix(-1 0 0 1 251.584 264.913)" fill="#5BD2DC" stroke="white" stroke-width="2"/>
<rect x="-0.5" y="0.5" width="86.3269" height="47.4833" rx="7.5" transform="matrix(-1 0 0 1 245.056 273.289)" fill="#FFA984" stroke="white"/>
<rect x="192.199" y="280.842" width="44.4456" height="40.4312" stroke="white"/>
<rect x="194.844" y="298.703" width="3.51384" height="0.941617" fill="#FABEA4" stroke="white" stroke-width="0.941617"/>
<rect x="194.844" y="304.353" width="3.51384" height="0.941617" fill="#FABEA4" stroke="white" stroke-width="0.941617"/>
<rect x="194.844" y="301.528" width="3.51384" height="0.941617" fill="#FABEA4" stroke="white" stroke-width="0.941617"/>
<rect x="208.21" y="298.703" width="3.51384" height="0.941617" fill="#FABEA4" stroke="white" stroke-width="0.941617"/>
<rect x="208.21" y="304.353" width="3.51384" height="0.941617" fill="#FABEA4" stroke="white" stroke-width="0.941617"/>
<rect x="208.21" y="301.528" width="3.51384" height="0.941617" fill="#FABEA4" stroke="white" stroke-width="0.941617"/>
<rect x="200.165" y="296.845" width="3.817" height="0.891091" transform="rotate(-90 200.165 296.845)" fill="#FABEA4" stroke="white" stroke-width="0.891091"/>
<rect x="205.511" y="296.845" width="3.817" height="0.891091" transform="rotate(-90 205.511 296.845)" fill="#FABEA4" stroke="white" stroke-width="0.891091"/>
<rect x="202.838" y="296.845" width="3.817" height="0.891091" transform="rotate(-90 202.838 296.845)" fill="#FABEA4" stroke="white" stroke-width="0.891091"/>
<rect x="200.165" y="310.028" width="3.817" height="0.891091" transform="rotate(-90 200.165 310.028)" fill="#FABEA4" stroke="white" stroke-width="0.891091"/>
<rect x="205.511" y="310.028" width="3.817" height="0.891091" transform="rotate(-90 205.511 310.028)" fill="#FABEA4" stroke="white" stroke-width="0.891091"/>
<rect x="202.838" y="310.028" width="3.817" height="0.891091" transform="rotate(-90 202.838 310.028)" fill="#FABEA4" stroke="white" stroke-width="0.891091"/>
<rect x="226.923" y="299.645" width="6.18711" height="0.941617" fill="#FABEA4" stroke="white" stroke-width="0.941617"/>
<rect x="226.923" y="295.878" width="6.18711" height="0.941617" fill="#FABEA4" stroke="white" stroke-width="0.941617"/>
<rect x="226.923" y="292.112" width="6.18711" height="0.941617" fill="#FABEA4" stroke="white" stroke-width="0.941617"/>
<rect x="226.923" y="288.345" width="6.18711" height="0.941617" fill="#FABEA4" stroke="white" stroke-width="0.941617"/>
<rect x="226.923" y="284.579" width="6.18711" height="0.941617" fill="#FABEA4" stroke="white" stroke-width="0.941617"/>
<rect x="216.759" y="304.882" width="15.8218" height="4.59132" stroke="white" stroke-width="2"/>
<rect x="214.759" y="284.166" width="8.35779" height="3.34655" transform="rotate(90 214.759 284.166)" stroke="white" stroke-width="2"/>
<rect x="203.175" y="287.816" width="7.802" height="3.6497" transform="rotate(-180 203.175 287.816)" stroke="white" stroke-width="2"/>
<rect x="216.759" y="312.415" width="15.8218" height="4.59132" stroke="white" stroke-width="2"/>
<rect x="198.937" y="297.349" width="8.69309" height="8.35779" stroke="white" stroke-width="2"/>
<mask id="path-216-inside-7_183_728" fill="white">
<ellipse cx="221.105" cy="299.174" rx="0.891091" ry="0.941617"/>
</mask>
<ellipse cx="221.105" cy="299.174" rx="0.891091" ry="0.941617" fill="#FABEA4"/>
<path d="M220.997 299.174C220.997 299.176 220.997 299.166 221.009 299.152C221.023 299.138 221.057 299.116 221.105 299.116V301.116C222.201 301.116 222.997 300.194 222.997 299.174H220.997ZM221.105 299.116C221.154 299.116 221.188 299.138 221.202 299.152C221.214 299.166 221.214 299.176 221.214 299.174H219.214C219.214 300.194 220.01 301.116 221.105 301.116V299.116ZM221.214 299.174C221.214 299.172 221.214 299.182 221.202 299.195C221.188 299.21 221.154 299.232 221.105 299.232V297.232C220.01 297.232 219.214 298.154 219.214 299.174H221.214ZM221.105 299.232C221.057 299.232 221.023 299.21 221.009 299.195C220.997 299.182 220.997 299.172 220.997 299.174H222.997C222.997 298.154 222.201 297.232 221.105 297.232V299.232Z" fill="white" mask="url(#path-216-inside-7_183_728)"/>
<mask id="path-218-inside-8_183_728" fill="white">
<ellipse cx="197.046" cy="315.181" rx="0.891091" ry="0.941617"/>
</mask>
<ellipse cx="197.046" cy="315.181" rx="0.891091" ry="0.941617" fill="#FABEA4"/>
<path d="M196.937 315.181C196.937 315.183 196.937 315.173 196.95 315.16C196.963 315.145 196.998 315.123 197.046 315.123V317.123C198.142 317.123 198.937 316.201 198.937 315.181H196.937ZM197.046 315.123C197.095 315.123 197.129 315.145 197.142 315.16C197.155 315.173 197.155 315.183 197.155 315.181H195.155C195.155 316.201 195.95 317.123 197.046 317.123V315.123ZM197.155 315.181C197.155 315.18 197.155 315.189 197.142 315.203C197.129 315.217 197.095 315.24 197.046 315.24V313.24C195.95 313.24 195.155 314.162 195.155 315.181H197.155ZM197.046 315.24C196.998 315.24 196.963 315.217 196.95 315.203C196.937 315.189 196.937 315.18 196.937 315.181H198.937C198.937 314.162 198.142 313.24 197.046 313.24V315.24Z" fill="white" mask="url(#path-218-inside-8_183_728)"/>
<mask id="path-220-inside-9_183_728" fill="white">
<ellipse cx="201.501" cy="315.181" rx="0.891091" ry="0.941617"/>
</mask>
<ellipse cx="201.501" cy="315.181" rx="0.891091" ry="0.941617" fill="#FABEA4"/>
<path d="M201.393 315.181C201.393 315.183 201.393 315.173 201.405 315.16C201.419 315.145 201.453 315.123 201.501 315.123V317.123C202.597 317.123 203.393 316.201 203.393 315.181H201.393ZM201.501 315.123C201.55 315.123 201.584 315.145 201.598 315.16C201.61 315.173 201.61 315.183 201.61 315.181H199.61C199.61 316.201 200.406 317.123 201.501 317.123V315.123ZM201.61 315.181C201.61 315.18 201.61 315.189 201.598 315.203C201.584 315.217 201.55 315.24 201.501 315.24V313.24C200.406 313.24 199.61 314.162 199.61 315.181H201.61ZM201.501 315.24C201.453 315.24 201.419 315.217 201.405 315.203C201.393 315.189 201.393 315.18 201.393 315.181H203.393C203.393 314.162 202.597 313.24 201.501 313.24V315.24Z" fill="white" mask="url(#path-220-inside-9_183_728)"/>
<mask id="path-222-inside-10_183_728" fill="white">
<ellipse cx="205.957" cy="315.181" rx="0.891091" ry="0.941617"/>
</mask>
<ellipse cx="205.957" cy="315.181" rx="0.891091" ry="0.941617" fill="#FABEA4"/>
<path d="M205.848 315.181C205.848 315.183 205.848 315.173 205.861 315.16C205.874 315.145 205.909 315.123 205.957 315.123V317.123C207.053 317.123 207.848 316.201 207.848 315.181H205.848ZM205.957 315.123C206.005 315.123 206.04 315.145 206.053 315.16C206.066 315.173 206.066 315.183 206.066 315.181H204.066C204.066 316.201 204.861 317.123 205.957 317.123V315.123ZM206.066 315.181C206.066 315.18 206.066 315.189 206.053 315.203C206.04 315.217 206.005 315.24 205.957 315.24V313.24C204.861 313.24 204.066 314.162 204.066 315.181H206.066ZM205.957 315.24C205.909 315.24 205.874 315.217 205.861 315.203C205.848 315.189 205.848 315.18 205.848 315.181H207.848C207.848 314.162 207.053 313.24 205.957 313.24V315.24Z" fill="white" mask="url(#path-222-inside-10_183_728)"/>
<mask id="path-224-inside-11_183_728" fill="white">
<ellipse cx="210.413" cy="315.181" rx="0.891091" ry="0.941617"/>
</mask>
<ellipse cx="210.413" cy="315.181" rx="0.891091" ry="0.941617" fill="#FABEA4"/>
<path d="M210.304 315.181C210.304 315.183 210.304 315.173 210.316 315.16C210.33 315.145 210.364 315.123 210.413 315.123V317.123C211.508 317.123 212.304 316.201 212.304 315.181H210.304ZM210.413 315.123C210.461 315.123 210.495 315.145 210.509 315.16C210.521 315.173 210.521 315.183 210.521 315.181H208.521C208.521 316.201 209.317 317.123 210.413 317.123V315.123ZM210.521 315.181C210.521 315.18 210.521 315.189 210.509 315.203C210.495 315.217 210.461 315.24 210.413 315.24V313.24C209.317 313.24 208.521 314.162 208.521 315.181H210.521ZM210.413 315.24C210.364 315.24 210.33 315.217 210.316 315.203C210.304 315.189 210.304 315.18 210.304 315.181H212.304C212.304 314.162 211.508 313.24 210.413 313.24V315.24Z" fill="white" mask="url(#path-224-inside-11_183_728)"/>
<mask id="path-226-inside-12_183_728" fill="white">
<ellipse cx="221.105" cy="286.933" rx="0.891091" ry="0.941617"/>
</mask>
<ellipse cx="221.105" cy="286.933" rx="0.891091" ry="0.941617" fill="#FABEA4"/>
<path d="M220.997 286.933C220.997 286.935 220.997 286.925 221.009 286.911C221.023 286.897 221.057 286.874 221.105 286.874V288.874C222.201 288.874 222.997 287.952 222.997 286.933H220.997ZM221.105 286.874C221.154 286.874 221.188 286.897 221.202 286.911C221.214 286.925 221.214 286.935 221.214 286.933H219.214C219.214 287.952 220.01 288.874 221.105 288.874V286.874ZM221.214 286.933C221.214 286.931 221.214 286.941 221.202 286.954C221.188 286.969 221.154 286.991 221.105 286.991V284.991C220.01 284.991 219.214 285.913 219.214 286.933H221.214ZM221.105 286.991C221.057 286.991 221.023 286.969 221.009 286.954C220.997 286.941 220.997 286.931 220.997 286.933H222.997C222.997 285.913 222.201 284.991 221.105 284.991V286.991Z" fill="white" mask="url(#path-226-inside-12_183_728)"/>
<path d="M183.685 292.642C185.297 294.475 185.654 296.084 184.506 298.054" stroke="white" stroke-linecap="round" stroke-linejoin="round"/>
<path d="M174.733 293.935C176.621 294.389 178.264 294.013 179.707 292.642" stroke="white" stroke-linecap="round" stroke-linejoin="round"/>
<path d="M178.818 283.294C177.733 285.237 178.159 286.861 179.707 288.706" stroke="white" stroke-linecap="round" stroke-linejoin="round"/>
<path d="M174.733 287.722C175.425 289.309 176.18 290.177 177.978 290.612C178.212 290.669 178.467 290.655 178.712 290.674" stroke="white" stroke-linecap="round" stroke-linejoin="round"/>
<path d="M181.696 293.626C181.633 295.442 180.419 296.628 178.712 297.562" stroke="white" stroke-linecap="round" stroke-linejoin="round"/>
<path d="M181.696 287.722C181.767 286.759 182.089 285.909 182.697 285.152C183.316 284.382 183.777 284.112 184.68 283.786" stroke="white" stroke-linecap="round" stroke-linejoin="round"/>
<path d="M184.68 290.682C186.489 290.568 187.964 291.702 188.659 293.626" stroke="white" stroke-linecap="round" stroke-linejoin="round"/>
<path d="M183.685 288.706C185.03 287.573 186.915 287.476 188.659 288.12" stroke="white" stroke-linecap="round" stroke-linejoin="round"/>
<path d="M181.997 283.105C186.13 283.105 189.462 286.416 189.462 290.479C189.462 294.542 186.13 297.853 181.997 297.853C177.863 297.853 174.531 294.542 174.531 290.479C174.531 286.416 177.863 283.105 181.997 283.105Z" stroke="white" stroke-width="2"/>
<path d="M181.696 288.722C182.802 288.722 183.68 289.606 183.68 290.674C183.68 291.742 182.802 292.626 181.696 292.626C180.59 292.626 179.712 291.742 179.712 290.674C179.712 289.606 180.59 288.722 181.696 288.722Z" stroke="white" stroke-width="2"/>
<rect x="172.249" y="321.273" width="40.4312" height="19.4951" rx="3.5" transform="rotate(-90 172.249 321.273)" stroke="white"/>
<path d="M183.685 312.917C185.297 314.75 185.654 316.358 184.506 318.329" stroke="white" stroke-linecap="round" stroke-linejoin="round"/>
<path d="M174.733 314.21C176.621 314.663 178.264 314.288 179.707 312.917" stroke="white" stroke-linecap="round" stroke-linejoin="round"/>
<path d="M178.818 303.568C177.733 305.512 178.159 307.136 179.707 308.98" stroke="white" stroke-linecap="round" stroke-linejoin="round"/>
<path d="M174.733 307.996C175.425 309.584 176.18 310.452 177.978 310.887C178.212 310.944 178.467 310.93 178.712 310.948" stroke="white" stroke-linecap="round" stroke-linejoin="round"/>
<path d="M181.696 313.901C181.633 315.717 180.419 316.903 178.712 317.837" stroke="white" stroke-linecap="round" stroke-linejoin="round"/>
<path d="M181.696 307.996C181.767 307.034 182.089 306.184 182.697 305.427C183.316 304.656 183.777 304.387 184.68 304.06" stroke="white" stroke-linecap="round" stroke-linejoin="round"/>
<path d="M184.68 310.956C186.489 310.843 187.964 311.977 188.659 313.901" stroke="white" stroke-linecap="round" stroke-linejoin="round"/>
<path d="M183.685 308.98C185.03 307.848 186.915 307.751 188.659 308.394" stroke="white" stroke-linecap="round" stroke-linejoin="round"/>
<path d="M181.997 303.379C186.13 303.379 189.462 306.691 189.462 310.754C189.462 314.816 186.13 318.128 181.997 318.128C177.863 318.128 174.531 314.816 174.531 310.754C174.531 306.691 177.863 303.379 181.997 303.379Z" stroke="white" stroke-width="2"/>
<path d="M181.696 308.997C182.802 308.997 183.68 309.881 183.68 310.949C183.68 312.017 182.802 312.901 181.696 312.901C180.59 312.901 179.712 312.017 179.712 310.949C179.712 309.881 180.59 308.997 181.696 308.997Z" stroke="white" stroke-width="2"/>
</svg>
